<mxfile host="app.diagrams.net" agent="Mozilla/5.0 (X11; Linux x86_64) AppleWebKit/537.36 (KHTML, like Gecko) Chrome/131.0.0.0 Safari/537.36" version="24.8.9">
  <diagram name="Page-1" id="KMwcI6bS_wRoA6phkeQ-">
    <mxGraphModel dx="880" dy="468" grid="1" gridSize="10" guides="1" tooltips="1" connect="1" arrows="1" fold="1" page="1" pageScale="1" pageWidth="850" pageHeight="1100" math="0" shadow="0">
      <root>
        <mxCell id="0" />
        <mxCell id="1" parent="0" />
        <mxCell id="JW8OHUgVRJeFFy1cACJR-1" value="Etinty:Client" style="swimlane;fontStyle=1;align=center;verticalAlign=top;childLayout=stackLayout;horizontal=1;startSize=26;horizontalStack=0;resizeParent=1;resizeParentMax=0;resizeLast=0;collapsible=1;marginBottom=0;whiteSpace=wrap;html=1;" parent="1" vertex="1">
          <mxGeometry x="40" y="190" width="160" height="158" as="geometry">
            <mxRectangle x="100" y="190" width="110" height="30" as="alternateBounds" />
          </mxGeometry>
        </mxCell>
        <mxCell id="JW8OHUgVRJeFFy1cACJR-2" value="+ idClient&lt;div&gt;+ name&lt;/div&gt;&lt;div&gt;- email&lt;/div&gt;&lt;div&gt;- phone&lt;br&gt;- address&lt;br&gt;- age&lt;br&gt;&lt;/div&gt;&lt;div&gt;- question1&lt;/div&gt;&lt;div&gt;-&amp;nbsp;&lt;span style=&quot;background-color: initial;&quot;&gt;question2&lt;/span&gt;&lt;/div&gt;" style="text;strokeColor=none;fillColor=none;align=left;verticalAlign=top;spacingLeft=4;spacingRight=4;overflow=hidden;rotatable=0;points=[[0,0.5],[1,0.5]];portConstraint=eastwest;whiteSpace=wrap;html=1;" parent="JW8OHUgVRJeFFy1cACJR-1" vertex="1">
          <mxGeometry y="26" width="160" height="124" as="geometry" />
        </mxCell>
        <mxCell id="JW8OHUgVRJeFFy1cACJR-3" value="" style="line;strokeWidth=1;fillColor=none;align=left;verticalAlign=middle;spacingTop=-1;spacingLeft=3;spacingRight=3;rotatable=0;labelPosition=right;points=[];portConstraint=eastwest;strokeColor=inherit;" parent="JW8OHUgVRJeFFy1cACJR-1" vertex="1">
          <mxGeometry y="150" width="160" height="8" as="geometry" />
        </mxCell>
        <mxCell id="JW8OHUgVRJeFFy1cACJR-5" value="Etinty:Antrian" style="swimlane;fontStyle=1;align=center;verticalAlign=top;childLayout=stackLayout;horizontal=1;startSize=26;horizontalStack=0;resizeParent=1;resizeParentMax=0;resizeLast=0;collapsible=1;marginBottom=0;whiteSpace=wrap;html=1;" parent="1" vertex="1">
          <mxGeometry x="462" y="190" width="160" height="130" as="geometry" />
        </mxCell>
        <mxCell id="JW8OHUgVRJeFFy1cACJR-6" value="+ idKlien&lt;br&gt;+ idForm&lt;br&gt;+ nama" style="text;strokeColor=none;fillColor=none;align=left;verticalAlign=top;spacingLeft=4;spacingRight=4;overflow=hidden;rotatable=0;points=[[0,0.5],[1,0.5]];portConstraint=eastwest;whiteSpace=wrap;html=1;" parent="JW8OHUgVRJeFFy1cACJR-5" vertex="1">
          <mxGeometry y="26" width="160" height="54" as="geometry" />
        </mxCell>
        <mxCell id="JW8OHUgVRJeFFy1cACJR-7" value="" style="line;strokeWidth=1;fillColor=none;align=left;verticalAlign=middle;spacingTop=-1;spacingLeft=3;spacingRight=3;rotatable=0;labelPosition=right;points=[];portConstraint=eastwest;strokeColor=inherit;" parent="JW8OHUgVRJeFFy1cACJR-5" vertex="1">
          <mxGeometry y="80" width="160" height="8" as="geometry" />
        </mxCell>
        <mxCell id="JW8OHUgVRJeFFy1cACJR-8" value="+ selectAntrian()&lt;br&gt;+ viewAntrian()" style="text;strokeColor=none;fillColor=none;align=left;verticalAlign=top;spacingLeft=4;spacingRight=4;overflow=hidden;rotatable=0;points=[[0,0.5],[1,0.5]];portConstraint=eastwest;whiteSpace=wrap;html=1;" parent="JW8OHUgVRJeFFy1cACJR-5" vertex="1">
          <mxGeometry y="88" width="160" height="42" as="geometry" />
        </mxCell>
        <mxCell id="JW8OHUgVRJeFFy1cACJR-13" value="Control:FO" style="swimlane;fontStyle=1;align=center;verticalAlign=top;childLayout=stackLayout;horizontal=1;startSize=26;horizontalStack=0;resizeParent=1;resizeParentMax=0;resizeLast=0;collapsible=1;marginBottom=0;whiteSpace=wrap;html=1;" parent="1" vertex="1">
          <mxGeometry x="190" y="30" width="110" height="150" as="geometry" />
        </mxCell>
        <mxCell id="JW8OHUgVRJeFFy1cACJR-14" value="" style="line;strokeWidth=1;fillColor=none;align=left;verticalAlign=middle;spacingTop=-1;spacingLeft=3;spacingRight=3;rotatable=0;labelPosition=right;points=[];portConstraint=eastwest;strokeColor=inherit;" parent="JW8OHUgVRJeFFy1cACJR-13" vertex="1">
          <mxGeometry y="26" width="110" height="8" as="geometry" />
        </mxCell>
        <mxCell id="JW8OHUgVRJeFFy1cACJR-15" value="+ index()&amp;nbsp;&lt;br&gt;+ getForm()&amp;nbsp;&lt;div&gt;+ uploadForm()&lt;/div&gt;&lt;div&gt;+ diagosisData()&lt;br&gt;+ getQueue()&lt;br&gt;+ updateQueue()&lt;/div&gt;&lt;div&gt;+ getAvailability()&lt;/div&gt;" style="text;strokeColor=none;fillColor=none;align=left;verticalAlign=top;spacingLeft=4;spacingRight=4;overflow=hidden;rotatable=0;points=[[0,0.5],[1,0.5]];portConstraint=eastwest;whiteSpace=wrap;html=1;" parent="JW8OHUgVRJeFFy1cACJR-13" vertex="1">
          <mxGeometry y="34" width="110" height="116" as="geometry" />
        </mxCell>
        <mxCell id="JW8OHUgVRJeFFy1cACJR-16" value="Etinty:DD" style="swimlane;fontStyle=1;align=center;verticalAlign=top;childLayout=stackLayout;horizontal=1;startSize=26;horizontalStack=0;resizeParent=1;resizeParentMax=0;resizeLast=0;collapsible=1;marginBottom=0;whiteSpace=wrap;html=1;" parent="1" vertex="1">
          <mxGeometry x="240" y="216" width="160" height="140" as="geometry" />
        </mxCell>
        <mxCell id="JW8OHUgVRJeFFy1cACJR-17" value="+ idKlien&lt;br&gt;+ nama&lt;br&gt;+ idDiagnostic&lt;br&gt;- jenisForm&lt;br&gt;- waktuMengisiForm" style="text;strokeColor=none;fillColor=none;align=left;verticalAlign=top;spacingLeft=4;spacingRight=4;overflow=hidden;rotatable=0;points=[[0,0.5],[1,0.5]];portConstraint=eastwest;whiteSpace=wrap;html=1;" parent="JW8OHUgVRJeFFy1cACJR-16" vertex="1">
          <mxGeometry y="26" width="160" height="64" as="geometry" />
        </mxCell>
        <mxCell id="JW8OHUgVRJeFFy1cACJR-18" value="" style="line;strokeWidth=1;fillColor=none;align=left;verticalAlign=middle;spacingTop=-1;spacingLeft=3;spacingRight=3;rotatable=0;labelPosition=right;points=[];portConstraint=eastwest;strokeColor=inherit;" parent="JW8OHUgVRJeFFy1cACJR-16" vertex="1">
          <mxGeometry y="90" width="160" height="8" as="geometry" />
        </mxCell>
        <mxCell id="JW8OHUgVRJeFFy1cACJR-19" value="+ getClient()&lt;br&gt;+ viewAntrian()&amp;nbsp;" style="text;strokeColor=none;fillColor=none;align=left;verticalAlign=top;spacingLeft=4;spacingRight=4;overflow=hidden;rotatable=0;points=[[0,0.5],[1,0.5]];portConstraint=eastwest;whiteSpace=wrap;html=1;" parent="JW8OHUgVRJeFFy1cACJR-16" vertex="1">
          <mxGeometry y="98" width="160" height="42" as="geometry" />
        </mxCell>
        <mxCell id="JW8OHUgVRJeFFy1cACJR-20" value="Etinty:Availability" style="swimlane;fontStyle=1;align=center;verticalAlign=top;childLayout=stackLayout;horizontal=1;startSize=26;horizontalStack=0;resizeParent=1;resizeParentMax=0;resizeLast=0;collapsible=1;marginBottom=0;whiteSpace=wrap;html=1;" parent="1" vertex="1">
          <mxGeometry x="664" y="191" width="160" height="60" as="geometry" />
        </mxCell>
        <mxCell id="JW8OHUgVRJeFFy1cACJR-22" value="" style="line;strokeWidth=1;fillColor=none;align=left;verticalAlign=middle;spacingTop=-1;spacingLeft=3;spacingRight=3;rotatable=0;labelPosition=right;points=[];portConstraint=eastwest;strokeColor=inherit;" parent="JW8OHUgVRJeFFy1cACJR-20" vertex="1">
          <mxGeometry y="26" width="160" height="8" as="geometry" />
        </mxCell>
        <mxCell id="JW8OHUgVRJeFFy1cACJR-23" value="+ setAvailability()" style="text;strokeColor=none;fillColor=none;align=left;verticalAlign=top;spacingLeft=4;spacingRight=4;overflow=hidden;rotatable=0;points=[[0,0.5],[1,0.5]];portConstraint=eastwest;whiteSpace=wrap;html=1;" parent="JW8OHUgVRJeFFy1cACJR-20" vertex="1">
          <mxGeometry y="34" width="160" height="26" as="geometry" />
        </mxCell>
        <mxCell id="i3VzfphMCQXfi6lSR8sE-1" value="" style="endArrow=none;html=1;rounded=0;entryX=0.994;entryY=0.69;entryDx=0;entryDy=0;entryPerimeter=0;exitX=-0.012;exitY=0.922;exitDx=0;exitDy=0;exitPerimeter=0;" parent="1" source="JW8OHUgVRJeFFy1cACJR-17" target="JW8OHUgVRJeFFy1cACJR-2" edge="1">
          <mxGeometry width="50" height="50" relative="1" as="geometry">
            <mxPoint x="400" y="260" as="sourcePoint" />
            <mxPoint x="450" y="210" as="targetPoint" />
          </mxGeometry>
        </mxCell>
        <mxCell id="1QGbozXHraVmk9afBFof-5" value="Control:Auth" style="swimlane;fontStyle=1;align=center;verticalAlign=top;childLayout=stackLayout;horizontal=1;startSize=26;horizontalStack=0;resizeParent=1;resizeParentMax=0;resizeLast=0;collapsible=1;marginBottom=0;whiteSpace=wrap;html=1;" parent="1" vertex="1">
          <mxGeometry x="100" y="30" width="80" height="90" as="geometry" />
        </mxCell>
        <mxCell id="1QGbozXHraVmk9afBFof-6" value="" style="line;strokeWidth=1;fillColor=none;align=left;verticalAlign=middle;spacingTop=-1;spacingLeft=3;spacingRight=3;rotatable=0;labelPosition=right;points=[];portConstraint=eastwest;strokeColor=inherit;" parent="1QGbozXHraVmk9afBFof-5" vertex="1">
          <mxGeometry y="26" width="80" height="8" as="geometry" />
        </mxCell>
        <mxCell id="1QGbozXHraVmk9afBFof-7" value="+ index()&lt;div&gt;+ login()&lt;br&gt;&lt;div&gt;+ logout()&lt;/div&gt;&lt;/div&gt;" style="text;strokeColor=none;fillColor=none;align=left;verticalAlign=top;spacingLeft=4;spacingRight=4;overflow=hidden;rotatable=0;points=[[0,0.5],[1,0.5]];portConstraint=eastwest;whiteSpace=wrap;html=1;" parent="1QGbozXHraVmk9afBFof-5" vertex="1">
          <mxGeometry y="34" width="80" height="56" as="geometry" />
        </mxCell>
        <mxCell id="aHumnUk_EUE7L_vE3pF2-3" value="Control:Counselor" style="swimlane;fontStyle=1;align=center;verticalAlign=top;childLayout=stackLayout;horizontal=1;startSize=26;horizontalStack=0;resizeParent=1;resizeParentMax=0;resizeLast=0;collapsible=1;marginBottom=0;whiteSpace=wrap;html=1;" vertex="1" parent="1">
          <mxGeometry x="310" y="30" width="150" height="110" as="geometry" />
        </mxCell>
        <mxCell id="aHumnUk_EUE7L_vE3pF2-4" value="" style="line;strokeWidth=1;fillColor=none;align=left;verticalAlign=middle;spacingTop=-1;spacingLeft=3;spacingRight=3;rotatable=0;labelPosition=right;points=[];portConstraint=eastwest;strokeColor=inherit;" vertex="1" parent="aHumnUk_EUE7L_vE3pF2-3">
          <mxGeometry y="26" width="150" height="8" as="geometry" />
        </mxCell>
        <mxCell id="aHumnUk_EUE7L_vE3pF2-5" value="+ index()&amp;nbsp;&lt;br&gt;+ getDD() // data dignosis&lt;div&gt;+ updateDD()&amp;nbsp;&lt;div&gt;+ updateAvailability()&lt;/div&gt;&lt;/div&gt;" style="text;strokeColor=none;fillColor=none;align=left;verticalAlign=top;spacingLeft=4;spacingRight=4;overflow=hidden;rotatable=0;points=[[0,0.5],[1,0.5]];portConstraint=eastwest;whiteSpace=wrap;html=1;" vertex="1" parent="aHumnUk_EUE7L_vE3pF2-3">
          <mxGeometry y="34" width="150" height="76" as="geometry" />
        </mxCell>
        <mxCell id="aHumnUk_EUE7L_vE3pF2-6" value="Control:Home" style="swimlane;fontStyle=1;align=center;verticalAlign=top;childLayout=stackLayout;horizontal=1;startSize=26;horizontalStack=0;resizeParent=1;resizeParentMax=0;resizeLast=0;collapsible=1;marginBottom=0;whiteSpace=wrap;html=1;" vertex="1" parent="1">
          <mxGeometry x="10" y="30" width="80" height="60" as="geometry" />
        </mxCell>
        <mxCell id="aHumnUk_EUE7L_vE3pF2-7" value="" style="line;strokeWidth=1;fillColor=none;align=left;verticalAlign=middle;spacingTop=-1;spacingLeft=3;spacingRight=3;rotatable=0;labelPosition=right;points=[];portConstraint=eastwest;strokeColor=inherit;" vertex="1" parent="aHumnUk_EUE7L_vE3pF2-6">
          <mxGeometry y="26" width="80" height="8" as="geometry" />
        </mxCell>
        <mxCell id="aHumnUk_EUE7L_vE3pF2-8" value="+ index()" style="text;strokeColor=none;fillColor=none;align=left;verticalAlign=top;spacingLeft=4;spacingRight=4;overflow=hidden;rotatable=0;points=[[0,0.5],[1,0.5]];portConstraint=eastwest;whiteSpace=wrap;html=1;" vertex="1" parent="aHumnUk_EUE7L_vE3pF2-6">
          <mxGeometry y="34" width="80" height="26" as="geometry" />
        </mxCell>
        <mxCell id="aHumnUk_EUE7L_vE3pF2-9" value="&lt;h1 style=&quot;margin-top: 0px;&quot;&gt;&lt;font&gt;skema&lt;/font&gt;&lt;/h1&gt;&lt;div&gt;&lt;font&gt;Diagnosis data terjadi saat pengisian form, teknis ini terjadi&lt;/font&gt;&lt;/div&gt;&lt;div&gt;&lt;font&gt;menggunakan teknologi AJAX,&amp;nbsp;&lt;/font&gt;&lt;/div&gt;&lt;div&gt;&lt;font&gt;diagnosis berdasarkan data, yang ada di formulir tertentu.&lt;/font&gt;&lt;/div&gt;" style="text;html=1;whiteSpace=wrap;overflow=hidden;rounded=0;" vertex="1" parent="1">
          <mxGeometry x="484" y="25" width="180" height="145" as="geometry" />
        </mxCell>
        <mxCell id="aHumnUk_EUE7L_vE3pF2-11" value="*" style="text;html=1;align=center;verticalAlign=middle;whiteSpace=wrap;rounded=0;" vertex="1" parent="1">
          <mxGeometry x="178" y="279" width="60" height="30" as="geometry" />
        </mxCell>
      </root>
    </mxGraphModel>
  </diagram>
</mxfile>
